<?xml version="1.0" encoding="utf-8"?>
<!-- Generator: Adobe Illustrator 24.0.0, SVG Export Plug-In . SVG Version: 6.00 Build 0)  -->
<svg version="1.1" id="KTH_Innovation" xmlns="http://www.w3.org/2000/svg" xmlns:xlink="http://www.w3.org/1999/xlink" x="0px"
	 y="0px" viewBox="0 0 1837.8 1429.26" style="enable-background:new 0 0 1837.8 1429.26;" xml:space="preserve">
<style type="text/css">
	.st0{fill:none;stroke:#42BA8D;stroke-width:2.8346;stroke-miterlimit:10;}
	.st1{fill:#F4B41A;}
	.st2{fill:#EC2024;}
	.st3{fill:#FFFFFF;}
	.st4{fill:#2F55A5;}
	.st5{fill:none;}
	.st6{font-family:'PixelOperator8';}
	.st7{font-size:17.0079px;}
	.st8{fill:#B3E3D1;}
	.st9{font-size:25.5118px;}
	.st10{fill:none;stroke:#F4B41A;stroke-width:8.5039;stroke-linecap:round;stroke-miterlimit:10;}
	.st11{fill:none;stroke:#F4B41A;stroke-width:8.5039;stroke-linecap:round;stroke-miterlimit:10;stroke-dasharray:0,68.4923;}
	.st12{fill:none;stroke:#F4B41A;stroke-width:8.5039;stroke-linecap:round;stroke-miterlimit:10;stroke-dasharray:0,68.5947;}
	.st13{fill:none;stroke:#F4B41A;stroke-width:8.5039;stroke-linecap:round;stroke-miterlimit:10;stroke-dasharray:0,62.8288;}
	.st14{font-family:'CrackMan-Regular';}
	.st15{font-size:99.2126px;}
	.st16{font-size:28.3465px;}
	.st17{font-family:'Lato-Regular';}
</style>
<g id="BG">
	<rect y="0" width="1837.8" height="1429.39"/>
</g>
<g id="Layout">
	<g>
		<path class="st0" d="M619.2,994.06c3.33,0.01,6.67,0.03,10,0.04v58.62l42.52,12.6v68.26l101.78,21.18l98.19,11.82l101.11,3.78
			l95.27-3.78l97.89-11.73l96.83-19.52l94.38-27.06l92.36-34.59l101.91-48.04l1.25-169.27H670.31v19.71l-102.5-33.88l0.07-25.87
			h23.6l0.03-8.78c0-0.45,0.01-0.9-0.02-1.37l-0.47-10.48h0.49v-69.6h72.58V540.38H353.37v34.34h-93.86v219.7l94.33-0.16v54.06h18.3
			v91.26l79,42.94c5.33,2.38,55.33,24.66,71.89,32.04v-20.62c3.33,0,6.67,0.01,10,0.01c0,3.33,0,6.67,0,10v26.01l-8.77-3.91
			c-0.44-0.2-77.55-34.57-77.55-34.57l-84.57-45.97V858.3h-18.3v-54.05l-94.33,0.16V564.7h93.86v-34.34h321.95c2.92,0,5.85,0,8.77,0
			c0,68.57,0,137.15,0,205.72H601.5v69.6h-0.03c0.03,0.64,0.03,1.27,0.03,1.88l-0.05,18.75h-23.59l-0.02,8.65l40.14,13.27
			c0,0,26.51,8.76,42.33,13.99v-15.87c42.35,0,84.7,0,127.04,0c0,0,387.67,0,775.35,0v8.77v-4.38v4.38l-1.3,176.87l-107.97,50.9
			l-93.11,34.88l-95.14,27.28l-97.61,19.68l-98.68,11.82l-96.05,3.81l-101.91-3.81l-99.03-11.92l-110.16-22.92v-68.93
			c-14.17-4.2-28.35-8.4-42.52-12.6C619.2,1038.15,619.2,1016.1,619.2,994.06z"/>
	</g>
</g>
<g id="Icons">
	<g>
		<g>
			<polygon class="st1" points="565.54,1017.05 567.84,1017.05 567.84,1020.39 569.51,1020.39 569.51,1022.48 573.48,1022.48 
				573.48,1024.15 582.67,1024.15 582.67,1022.48 586.43,1022.48 586.43,1020.39 588.52,1020.39 588.52,1017.05 584.92,1017.05 
				584.92,1015.25 578.8,1015.32 578.76,1013.44 574.87,1013.4 574.83,1010.73 578.76,1010.69 578.76,1008.76 584.84,1008.72 
				584.84,1006.84 588.54,1006.8 588.52,1003.89 586.43,1003.89 586.43,1001.18 582.67,1001.18 582.67,999.51 573.48,999.51 
				573.48,1001.18 569.51,1001.18 569.51,1003.89 567.84,1003.89 567.84,1007.03 565.54,1007.03 			"/>
		</g>
		<g>
			<polygon class="st2" points="443.37,596.95 443.36,596.8 443.36,576.89 440.57,576.94 440.52,568.6 438.08,568.6 438.03,565.92 
				435.5,565.92 435.5,563.35 430.38,563.3 430.28,562.03 419.95,562.03 419.9,563.25 415.04,563.3 415.04,565.87 412.35,565.82 
				412.35,568.45 409.57,568.45 409.52,576.53 407.59,576.48 407.64,596.9 409.57,596.9 409.58,594.78 412.3,594.78 412.3,591.9 
				415.05,591.88 415.05,594.57 417.64,594.61 417.67,597 422.47,597.03 422.47,591.88 427.5,591.85 427.47,597 433.26,597.03 
				433.3,594.44 435.65,594.44 435.62,591.85 438.01,591.85 438.03,594.42 440.52,594.37 440.52,596.97 			"/>
			<g>
				<polygon class="st3" points="435.8,571.12 432.92,571.12 432.92,568.64 427.65,568.64 427.65,571.12 425.37,571.12 
					425.37,578.72 427.65,578.72 427.65,581.4 432.92,581.4 432.92,578.72 435.8,578.72 				"/>
			</g>
			<g>
				<polygon class="st3" points="420.3,571.3 417.42,571.3 417.42,568.84 412.16,568.84 412.16,571.3 409.87,571.3 409.87,578.82 
					412.16,578.82 412.16,581.47 417.42,581.47 417.42,578.82 420.3,578.82 				"/>
			</g>
			<rect x="425.37" y="573.99" class="st4" width="4.97" height="4.72"/>
			<rect x="409.87" y="574.13" class="st4" width="4.97" height="4.67"/>
		</g>
		<g>
			<polygon class="st4" points="618.49,913.75 618.53,913.6 625.07,894.8 622.41,893.93 625.1,886.04 622.8,885.24 623.63,882.69 
				621.24,881.86 622.09,879.42 617.27,877.7 617.59,876.47 607.84,873.08 607.39,874.21 602.78,872.66 601.93,875.09 
				599.41,874.16 598.55,876.64 595.92,875.73 593.22,883.35 591.41,882.67 584.75,901.96 586.58,902.6 587.29,900.6 589.86,901.49 
				590.8,898.77 593.41,899.66 592.52,902.2 594.95,903.08 594.19,905.35 598.72,906.96 600.41,902.09 605.18,903.72 603.45,908.57 
				608.91,910.51 609.8,908.07 612.02,908.84 612.85,906.38 615.1,907.17 614.28,909.61 616.64,910.38 615.78,912.83 			"/>
			<g>
				
					<rect x="601.09" y="886.89" transform="matrix(0.3284 -0.9445 0.9445 0.3284 -434.463 1166.4314)" class="st3" width="3.85" height="3.69"/>
				
					<rect x="609.8" y="889.92" transform="matrix(0.3284 -0.9445 0.9445 0.3284 -431.477 1176.6942)" class="st3" width="3.85" height="3.69"/>
				
					<rect x="593.53" y="894.93" transform="matrix(0.3284 -0.9445 0.9445 0.3284 -447.0484 1163.7937)" class="st3" width="2.67" height="2.67"/>
				
					<rect x="596.91" y="893.25" transform="matrix(0.3284 -0.9445 0.9445 0.3284 -443.1895 1165.8521)" class="st3" width="2.67" height="2.67"/>
				
					<rect x="598.56" y="896.65" transform="matrix(0.3284 -0.9445 0.9445 0.3284 -445.2909 1169.7002)" class="st3" width="2.67" height="2.67"/>
				
					<rect x="601.96" y="895" transform="matrix(0.3284 -0.9445 0.9445 0.3284 -441.4542 1171.8041)" class="st3" width="2.67" height="2.67"/>
				
					<rect x="603.59" y="898.36" transform="matrix(0.3284 -0.9445 0.9445 0.3284 -443.5349 1175.5958)" class="st3" width="2.67" height="2.67"/>
				
					<rect x="606.95" y="896.73" transform="matrix(0.3284 -0.9445 0.9445 0.3284 -439.7426 1177.6765)" class="st3" width="2.67" height="2.67"/>
				
					<rect x="608.6" y="900.14" transform="matrix(0.3284 -0.9445 0.9445 0.3284 -441.8433 1181.524)" class="st3" width="2.67" height="2.67"/>
				
					<rect x="612" y="898.49" transform="matrix(0.3284 -0.9445 0.9445 0.3284 -438.0067 1183.6282)" class="st3" width="2.67" height="2.67"/>
			</g>
		</g>
		<g>
			<polygon class="st2" points="510.81,596.95 510.8,596.8 510.8,576.89 508,576.94 507.95,568.6 505.52,568.6 505.47,565.92 
				502.94,565.92 502.94,563.35 497.82,563.3 497.72,562.03 487.39,562.03 487.34,563.25 482.47,563.3 482.47,565.87 479.79,565.82 
				479.79,568.45 477.01,568.45 476.96,576.53 475.02,576.48 475.07,596.9 477.01,596.9 477.02,594.78 479.74,594.78 479.74,591.9 
				482.49,591.88 482.49,594.57 485.07,594.61 485.11,597 489.91,597.03 489.91,591.88 494.94,591.85 494.91,597 500.7,597.03 
				500.74,594.44 503.09,594.44 503.06,591.85 505.45,591.85 505.47,594.42 507.95,594.37 507.95,596.97 			"/>
			<g>
				<polygon class="st3" points="503.24,571.12 500.36,571.12 500.36,568.64 495.09,568.64 495.09,571.12 492.81,571.12 
					492.81,578.72 495.09,578.72 495.09,581.4 500.36,581.4 500.36,578.72 503.24,578.72 				"/>
			</g>
			<g>
				<polygon class="st3" points="487.74,571.3 484.86,571.3 484.86,568.84 479.59,568.84 479.59,571.3 477.31,571.3 477.31,578.82 
					479.59,578.82 479.59,581.47 484.86,581.47 484.86,578.82 487.74,578.82 				"/>
			</g>
			<rect x="492.81" y="573.99" class="st4" width="4.97" height="4.72"/>
			<rect x="477.31" y="574.13" class="st4" width="4.97" height="4.67"/>
		</g>
		<g>
			<polygon class="st2" points="577.48,596.95 577.48,596.8 577.48,576.89 574.68,576.94 574.63,568.6 572.19,568.6 572.15,565.92 
				569.61,565.92 569.61,563.35 564.5,563.3 564.4,562.03 554.07,562.03 554.02,563.25 549.15,563.3 549.15,565.87 546.47,565.82 
				546.47,568.45 543.69,568.45 543.64,576.53 541.7,576.48 541.75,596.9 543.69,596.9 543.7,594.78 546.42,594.78 546.42,591.9 
				549.17,591.88 549.17,594.57 551.75,594.61 551.78,597 556.58,597.03 556.58,591.88 561.62,591.85 561.58,597 567.38,597.03 
				567.41,594.44 569.76,594.44 569.74,591.85 572.12,591.85 572.15,594.42 574.63,594.37 574.63,596.97 			"/>
			<g>
				<polygon class="st3" points="569.91,571.12 567.03,571.12 567.03,568.64 561.76,568.64 561.76,571.12 559.48,571.12 
					559.48,578.72 561.76,578.72 561.76,581.4 567.03,581.4 567.03,578.72 569.91,578.72 				"/>
			</g>
			<g>
				<polygon class="st3" points="554.41,571.3 551.53,571.3 551.53,568.84 546.27,568.84 546.27,571.3 543.98,571.3 543.98,578.82 
					546.27,578.82 546.27,581.47 551.53,581.47 551.53,578.82 554.41,578.82 				"/>
			</g>
			<rect x="559.48" y="573.99" class="st4" width="4.97" height="4.72"/>
			<rect x="543.98" y="574.13" class="st4" width="4.97" height="4.67"/>
		</g>
		<g>
			<polygon class="st2" points="643.59,705.43 643.58,705.28 643.58,685.37 640.78,685.42 640.73,677.08 638.3,677.08 
				638.25,674.41 635.72,674.41 635.72,671.83 630.6,671.78 630.5,670.52 620.17,670.52 620.12,671.73 615.26,671.78 615.26,674.36 
				612.57,674.31 612.57,676.93 609.79,676.93 609.74,685.02 607.8,684.97 607.85,705.38 609.79,705.38 609.8,703.26 612.52,703.26 
				612.52,700.38 615.27,700.36 615.27,703.06 617.85,703.09 617.89,705.48 622.69,705.52 622.69,700.36 627.72,700.33 
				627.69,705.48 633.48,705.52 633.52,702.92 635.87,702.92 635.84,700.33 638.23,700.33 638.25,702.91 640.73,702.85 
				640.73,705.46 			"/>
			<g>
				<polygon class="st3" points="636.02,679.6 633.14,679.6 633.14,677.12 627.87,677.12 627.87,679.6 625.59,679.6 625.59,687.2 
					627.87,687.2 627.87,689.89 633.14,689.89 633.14,687.2 636.02,687.2 				"/>
			</g>
			<g>
				<polygon class="st3" points="620.52,679.78 617.64,679.78 617.64,677.32 612.37,677.32 612.37,679.78 610.09,679.78 
					610.09,687.3 612.37,687.3 612.37,689.95 617.64,689.95 617.64,687.3 620.52,687.3 				"/>
			</g>
			<rect x="625.59" y="682.47" class="st4" width="4.97" height="4.72"/>
			<rect x="610.09" y="682.61" class="st4" width="4.97" height="4.67"/>
		</g>
	</g>
</g>
<g id="Legend">
	<g>
		<g>
			<polygon class="st4" points="374.41,459.94 374.41,459.83 374.41,445.81 372.44,445.85 372.4,439.98 370.69,439.98 
				370.65,438.09 368.87,438.09 368.87,436.28 365.27,436.24 365.2,435.35 357.92,435.35 357.89,436.21 354.46,436.24 
				354.46,438.06 352.57,438.02 352.57,439.87 350.61,439.87 350.58,445.57 349.21,445.53 349.25,459.9 350.61,459.9 350.62,458.41 
				352.54,458.41 352.54,456.38 354.47,456.37 354.47,458.27 356.29,458.29 356.31,459.97 359.69,460 359.69,456.37 363.24,456.35 
				363.21,459.97 367.29,460 367.32,458.17 368.97,458.17 368.96,456.35 370.63,456.35 370.65,458.16 372.4,458.12 372.4,459.96 			
				"/>
			<g>
				<rect x="357.06" y="445.51" class="st3" width="2.6" height="2.71"/>
				<rect x="363.56" y="445.51" class="st3" width="2.6" height="2.71"/>
				<rect x="353.74" y="452.82" class="st3" width="1.88" height="1.88"/>
				<rect x="355.6" y="450.92" class="st3" width="1.88" height="1.88"/>
				<rect x="357.48" y="452.8" class="st3" width="1.88" height="1.88"/>
				<rect x="359.37" y="450.92" class="st3" width="1.88" height="1.88"/>
				<rect x="361.23" y="452.78" class="st3" width="1.88" height="1.88"/>
				<rect x="363.09" y="450.92" class="st3" width="1.88" height="1.88"/>
				<rect x="364.97" y="452.8" class="st3" width="1.88" height="1.88"/>
				<rect x="366.85" y="450.92" class="st3" width="1.88" height="1.88"/>
			</g>
		</g>
		<g>
			<polygon class="st1" points="349.21,410.25 351.51,410.25 351.51,413.59 353.18,413.59 353.18,415.68 357.15,415.68 
				357.15,417.35 366.34,417.35 366.34,415.68 370.1,415.68 370.1,413.59 372.19,413.59 372.19,410.25 368.59,410.25 368.59,408.45 
				362.47,408.52 362.43,406.64 358.54,406.6 358.5,403.93 362.43,403.89 362.43,401.96 368.51,401.92 368.51,400.04 372.21,400 
				372.19,397.09 370.1,397.09 370.1,394.38 366.34,394.38 366.34,392.71 357.15,392.71 357.15,394.38 353.18,394.38 353.18,397.09 
				351.51,397.09 351.51,400.23 349.21,400.23 			"/>
		</g>
		<rect x="380.91" y="397.01" class="st5" width="123.98" height="16.24"/>
		<text transform="matrix(1 0 0 1 380.9099 411.8901)" class="st3 st6 st7">entrance</text>
		<rect x="384.89" y="439.62" class="st5" width="171.58" height="16.24"/>
		<text transform="matrix(1 0 0 1 384.8926 454.4978)" class="st3 st6 st7">service desk</text>
		<g>
			<polygon class="st2" points="373.85,502.59 373.84,502.48 373.84,488.46 371.87,488.5 371.84,482.63 370.12,482.63 
				370.09,480.74 368.3,480.74 368.3,478.93 364.7,478.89 364.63,478 357.36,478 357.32,478.86 353.89,478.89 353.89,480.7 
				352.01,480.67 352.01,482.52 350.05,482.52 350.01,488.21 348.65,488.18 348.68,502.55 350.05,502.55 350.06,501.06 
				351.97,501.06 351.97,499.03 353.91,499.02 353.91,500.91 355.72,500.94 355.75,502.62 359.13,502.65 359.13,499.02 
				362.67,498.99 362.65,502.62 366.73,502.65 366.75,500.82 368.41,500.82 368.39,498.99 370.07,498.99 370.09,500.81 
				371.84,500.77 371.84,502.6 			"/>
			<g>
				<polygon class="st3" points="368.51,484.4 366.48,484.4 366.48,482.65 362.78,482.65 362.78,484.4 361.17,484.4 361.17,489.75 
					362.78,489.75 362.78,491.64 366.48,491.64 366.48,489.75 368.51,489.75 				"/>
			</g>
			<g>
				<polygon class="st3" points="357.6,484.52 355.57,484.52 355.57,482.79 351.87,482.79 351.87,484.52 350.26,484.52 
					350.26,489.82 351.87,489.82 351.87,491.69 355.57,491.69 355.57,489.82 357.6,489.82 				"/>
			</g>
			<rect x="361.17" y="486.42" class="st4" width="3.5" height="3.32"/>
			<rect x="350.26" y="486.52" class="st4" width="3.5" height="3.29"/>
		</g>
		<rect x="384.89" y="482.22" class="st5" width="171.58" height="16.24"/>
		<text transform="matrix(1 0 0 1 384.8926 497.1055)" class="st3 st6 st7">startup area</text>
	</g>
</g>
<g id="Companies">
	<g>
		<rect x="702.91" y="1098.17" class="st5" width="49.51" height="26.65"/>
		<text transform="matrix(1 0 0 1 702.9102 1120.4944)" class="st8 st6 st9">97</text>
		<rect x="790.72" y="1111.5" class="st5" width="49.51" height="26.65"/>
		<text transform="matrix(1 0 0 1 790.7178 1133.8218)" class="st8 st6 st9">98</text>
		<rect x="937.51" y="1004.33" class="st5" width="72.18" height="26.65"/>
		<text transform="matrix(1 0 0 1 937.5117 1026.6582)" class="st8 st6 st9">108</text>
		<rect x="893.94" y="1120.19" class="st5" width="49.51" height="26.65"/>
		<text transform="matrix(1 0 0 1 893.9385 1142.5166)" class="st8 st6 st9">99</text>
		<rect x="1098.47" y="1111.5" class="st5" width="72.22" height="26.65"/>
		<text transform="matrix(1 0 0 1 1098.4697 1133.8218)" class="st8 st6 st9">101</text>
		<rect x="1203.06" y="1090.88" class="st5" width="72.22" height="26.65"/>
		<text transform="matrix(1 0 0 1 1203.0625 1113.2073)" class="st8 st6 st9">102</text>
		<rect x="1305.22" y="1061.57" class="st5" width="72.22" height="26.65"/>
		<text transform="matrix(1 0 0 1 1305.2197 1083.8975)" class="st8 st6 st9">103</text>
		<rect x="1401.04" y="1029.26" class="st5" width="72.22" height="26.65"/>
		<text transform="matrix(1 0 0 1 1401.0425 1051.5789)" class="st8 st6 st9">104</text>
		<rect x="1092.37" y="880.62" class="st5" width="72.22" height="26.65"/>
		<text transform="matrix(1 0 0 1 1092.3745 902.9407)" class="st8 st6 st9">107</text>
		<rect x="1196.25" y="880.62" class="st5" width="72.22" height="26.65"/>
		<text transform="matrix(1 0 0 1 1196.249 902.9407)" class="st8 st6 st9">106</text>
		<rect x="1300.12" y="880.62" class="st5" width="72.22" height="26.65"/>
		<text transform="matrix(1 0 0 1 1300.1221 902.9407)" class="st8 st6 st9">105</text>
		
			<rect x="453.16" y="908.84" transform="matrix(0.4185 -0.9082 0.9082 0.4185 -586.9625 973.1486)" class="st5" width="26.65" height="72.22"/>
		<text transform="matrix(0.9082 0.4185 -0.4185 0.9082 429.9638 938.0092)" class="st8 st6 st9">109</text>
		<rect x="382.72" y="842.05" class="st5" width="72.22" height="26.65"/>
		<text transform="matrix(1 0 0 1 382.72 864.3757)" class="st8 st6 st9">110</text>
		<rect x="382.72" y="734.29" class="st5" width="72.22" height="26.65"/>
		<text transform="matrix(1 0 0 1 382.72 756.6182)" class="st8 st6 st9">111</text>
		<rect x="984.85" y="1120.19" class="st5" width="72.22" height="26.65"/>
		<text transform="matrix(1 0 0 1 984.8501 1142.5166)" class="st8 st6 st9">100</text>
	</g>
</g>
<g id="Path">
	<g>
		<g>
			<line class="st10" x1="663.9" y1="994.53" x2="663.9" y2="994.53"/>
			<path class="st11" d="M721.54,1031.43c24.8,13.49,54.13,26.56,87.81,36.65c74.63,22.36,133.92,16.42,249.83,8.32
				c107.29-7.5,192.65-14.36,287.18-64.87c25.12-13.42,46.35-27.5,63.57-40.28"/>
			<line class="st10" x1="1436.74" y1="949.95" x2="1436.74" y2="949.95"/>
			<path class="st12" d="M1368.14,949.95c-253.71,0-507.43,0-761.14,0c-28.43-14.9-56.86-29.8-85.29-44.7"/>
			<line class="st10" x1="491.33" y1="889.33" x2="491.33" y2="889.33"/>
			<polyline class="st13" points="491.33,826.5 491.33,739.9 491.33,669.43 			"/>
			<line class="st10" x1="491.33" y1="638.02" x2="491.33" y2="638.02"/>
		</g>
	</g>
	<g>
		<g>
			<line class="st10" x1="560.4" y1="700.85" x2="560.4" y2="700.85"/>
			<line class="st10" x1="560.39" y1="700.85" x2="560.39" y2="700.85"/>
		</g>
	</g>
	<g>
		<g>
			<line class="st10" x1="560.39" y1="638.02" x2="560.39" y2="638.02"/>
			<line class="st10" x1="560.38" y1="638.02" x2="560.38" y2="638.02"/>
		</g>
	</g>
	<g>
		<g>
			<line class="st10" x1="491.33" y1="638.02" x2="491.33" y2="638.02"/>
			<line class="st10" x1="422.27" y1="638.02" x2="422.27" y2="638.02"/>
		</g>
	</g>
</g>
<g id="Title">
	<rect x="249.51" y="214.13" class="st5" width="1313.18" height="81.6"/>
	<text transform="matrix(1 0 0 1 466.447 281.0964)" class="st1 st14 st15">KTH Innovation</text>
</g>
<g id="Companies_1_">
	<g>
		<rect x="727.14" y="377.33" class="st5" width="242.11" height="32.5"/>
		<text transform="matrix(1 0 0 1 727.144 402.1335)" class="st3 st6 st16">Companies</text>
		<rect x="812.28" y="447.68" class="st5" width="414.52" height="345.88"/>
		<text transform="matrix(1 0 0 1 812.2822 468.5686)" class="st3 st17 st16">Tobiasregistret</text>
		<text transform="matrix(1 0 0 1 812.2822 513.9185)" class="st3 st17 st16">Elekta Instrument AB</text>
		<text transform="matrix(1 0 0 1 812.2822 559.2786)" class="st3 st17 st16">Cepheid AB</text>
		<text transform="matrix(1 0 0 1 812.2822 604.6287)" class="st3 st17 st16">Caverion sverige AB</text>
		<text transform="matrix(1 0 0 1 812.2822 649.9885)" class="st3 st17 st16">Sveriges Ingenjörer</text>
		<text transform="matrix(1 0 0 1 812.2822 695.3386)" class="st3 st17 st16">Kirby Group Engineering</text>
		<text transform="matrix(1 0 0 1 812.2822 740.6985)" class="st3 st17 st16">B&amp;R Industrial Automation AB</text>
		<text transform="matrix(1 0 0 1 812.2822 786.0486)" class="st3 st17 st16">ABB</text>
		<rect x="1326.76" y="447.68" class="st5" width="223.94" height="310.35"/>
		<text transform="matrix(1 0 0 1 1326.7568 468.5686)" class="st3 st17 st16">Handelsbanken</text>
		<text transform="matrix(1 0 0 1 1326.7568 513.9185)" class="st3 st17 st16">Einride</text>
		<text transform="matrix(1 0 0 1 1326.7568 559.2786)" class="st3 st17 st16">Teracom AB</text>
		<text transform="matrix(1 0 0 1 1326.7568 604.6287)" class="st3 st17 st16">KTH</text>
		<text transform="matrix(1 0 0 1 1326.7568 649.9885)" class="st3 st17 st16">Outokompu</text>
		<text transform="matrix(1 0 0 1 1326.7568 695.3386)" class="st3 st17 st16">SICE Nordics AB</text>
		<text transform="matrix(1 0 0 1 1326.7568 740.6985)" class="st3 st17 st16">Fjärde AP-fonden</text>
		<rect x="1235.34" y="447.68" class="st5" width="78.14" height="310.35"/>
		<text transform="matrix(1 0 0 1 1235.3413 470.0002)" class="st8 st6 st9">105</text>
		<text transform="matrix(1 0 0 1 1235.3413 515.3501)" class="st8 st6 st9">106</text>
		<text transform="matrix(1 0 0 1 1235.3413 560.7102)" class="st8 st6 st9">107</text>
		<text transform="matrix(1 0 0 1 1235.3413 606.0601)" class="st8 st6 st9">108</text>
		<text transform="matrix(1 0 0 1 1235.3413 651.4202)" class="st8 st6 st9">109</text>
		<text transform="matrix(1 0 0 1 1235.3413 696.7703)" class="st8 st6 st9">110</text>
		<text transform="matrix(1 0 0 1 1235.3413 742.1301)" class="st8 st6 st9">111</text>
		<rect x="720.02" y="447.68" class="st5" width="78.14" height="352.27"/>
		<text transform="matrix(1 0 0 1 720.02 470.0002)" class="st8 st6 st9"> 97 </text>
		<text transform="matrix(1 0 0 1 720.02 515.3501)" class="st8 st6 st9"> 98</text>
		<text transform="matrix(1 0 0 1 720.02 560.7102)" class="st8 st6 st9"> 99</text>
		<text transform="matrix(1 0 0 1 720.02 606.0601)" class="st8 st6 st9">100</text>
		<text transform="matrix(1 0 0 1 720.02 651.4202)" class="st8 st6 st9">101</text>
		<text transform="matrix(1 0 0 1 720.02 696.7703)" class="st8 st6 st9">102</text>
		<text transform="matrix(1 0 0 1 720.02 742.1301)" class="st8 st6 st9">103</text>
		<text transform="matrix(1 0 0 1 720.02 787.4802)" class="st8 st6 st9">104</text>
	</g>
</g>
</svg>
