<?xml version="1.0" encoding="UTF-8" standalone="no"?>
<!-- Generator: Adobe Illustrator 24.0.0, SVG Export Plug-In . SVG Version: 6.00 Build 0)  -->

<svg
   version="1.1"
   id="Layer_1"
   x="0px"
   y="0px"
   viewBox="0 0 1961.2 1300.89"
   style="enable-background:new 0 0 1961.2 1643.89;"
   xml:space="preserve"
   sodipodi:docname="Nymble_f3-01.svg"
   inkscape:version="1.4.2 (ebf0e940, 2025-05-08)"
   xmlns:inkscape="http://www.inkscape.org/namespaces/inkscape"
   xmlns:sodipodi="http://sodipodi.sourceforge.net/DTD/sodipodi-0.dtd"
   xmlns="http://www.w3.org/2000/svg"
   xmlns:svg="http://www.w3.org/2000/svg"><defs
   id="defs137" /><sodipodi:namedview
   id="namedview137"
   pagecolor="#ffffff"
   bordercolor="#000000"
   borderopacity="0.25"
   inkscape:showpageshadow="2"
   inkscape:pageopacity="0.0"
   inkscape:pagecheckerboard="0"
   inkscape:deskcolor="#d1d1d1"
   inkscape:zoom="0.21055548"
   inkscape:cx="626.91315"
   inkscape:cy="645.91052"
   inkscape:window-width="1512"
   inkscape:window-height="863"
   inkscape:window-x="0"
   inkscape:window-y="34"
   inkscape:window-maximized="1"
   inkscape:current-layer="Layer_1" />
<style
   type="text/css"
   id="style1">
	.st0{fill:none;stroke:#42BA8D;stroke-width:2.8346;stroke-miterlimit:10;}
	.st1{fill:none;}
	.st2{fill:#B3E3D1;}
	.st3{font-family:'PixelOperator8';}
	.st4{font-size:25.5118px;}
	.st5{font-size:25.5108px;}
	.st6{fill:#EC2024;}
	.st7{fill:#FFFFFF;}
	.st8{fill:#9E6026;}
	.st9{fill:#ED475C;}
	.st10{fill:none;stroke:#F4B41A;stroke-width:8.5039;stroke-linecap:round;stroke-miterlimit:10;}
	.st11{fill:none;stroke:#F4B41A;stroke-width:8.5039;stroke-linecap:round;stroke-miterlimit:10;stroke-dasharray:0,58.8208;}
	.st12{fill:none;stroke:#F4B41A;stroke-width:8.5039;stroke-linecap:round;stroke-miterlimit:10;stroke-dasharray:0,68.8206;}
	.st13{fill:none;stroke:#F4B41A;stroke-width:8.5039;stroke-linecap:round;stroke-miterlimit:10;stroke-dasharray:0,68.2681;}
	.st14{fill:none;stroke:#F4B41A;stroke-width:8.5039;stroke-linecap:round;stroke-miterlimit:10;stroke-dasharray:0,70.1454;}
	.st15{fill:none;stroke:#F4B41A;stroke-width:8.5039;stroke-linecap:round;stroke-miterlimit:10;stroke-dasharray:0,72.674;}
	.st16{fill:none;stroke:#F4B41A;stroke-width:8.5039;stroke-linecap:round;stroke-miterlimit:10;stroke-dasharray:0,68.2675;}
	.st17{fill:none;stroke:#F4B41A;stroke-width:8.5039;stroke-linecap:round;stroke-miterlimit:10;stroke-dasharray:0,60.3214;}
	.st18{fill:none;stroke:#F4B41A;stroke-width:8.5039;stroke-linecap:round;stroke-miterlimit:10;stroke-dasharray:0,70.8661;}
	.st19{fill:#67C6BE;}
	.st20{fill:#2F55A5;}
	.st21{font-size:17.0079px;}
	.st22{fill:#F4B41A;}
	.st23{font-family:'CrackMan-Regular';}
	.st24{font-size:99.2126px;}
	.st25{font-size:28.3465px;}
	.st26{font-family:'Lato-Regular';}
</style>
<g
   id="BG_1_"
   transform="scale(1,0.79776388)">
	<g
   id="BG">
		<rect
   y="0"
   width="1961.2"
   height="1643.89"
   id="rect1"
   x="0" />
	</g>
</g>
<g
   id="Layout">
	<g
   id="g3">
		<path
   class="st0"
   d="M533.89,462.81l-113.23-22.94c-28.96,72.35-57.93,144.71-86.89,217.06c13.68,5.47,27.36,10.94,41.04,16.42    c-22.03,57.59-44.06,115.17-66.09,172.76l136.38,54.55l16.11-79.44l9.8,1.99l-18.49,91.19l-156.66-62.66l66.09-172.76    l-41.19-16.48l93.71-234.08l121.67,24.65l177.24,35.91l13.23-64.62h670.3L1377.07,327l101.87-20.84l8.63,41.68l-9.79,2.03l0,0    c-2.2-10.64-4.41-21.27-6.61-31.91l-82.31,16.84c6.76,33.19,13.52,66.38,20.29,99.57c-207.51,0-415.03,0-622.54,0    c-17.28,0-34.56,0-51.84,0l-13.59,66.4L533.89,462.81z"
   id="path1" />
		<path
   class="st0"
   d="M1024.14,560.33v9.94c-38.99-0.11-77.98-0.22-116.97-0.34c0,0,0-9.05,0-9.95    C946.16,560.1,985.15,560.21,1024.14,560.33z"
   id="path2" />
		<path
   class="st0"
   d="M528.44,850.22c0,0,1.95-9.62,1.99-9.8c34.47,6.99,111.49,22.6,111.49,22.6s20.66-101.88,20.77-102.42    c-0.91-0.17-5.97-1.12-12.18-2.28c-11.59-2.17-27.18-5.09-27.18-5.09c18.75-93.48,33.19-161.6,36.55-173.9    c0.73-2.67,2.57-7.86,7.06-12.35c0,0,5.31-5.31,15.61-6.44c3.59-0.39,45.52-0.61,114.54-0.64v10    c-70.44,0.03-109.47,0.26-113.54,0.59c-6.03,0.66-9.3,3.36-9.68,3.69l-0.15,0.14c-1.87,1.73-3.25,4.19-4.11,7.34    c-11.55,54.6-23.1,109.21-34.65,163.81l29.72,5.33H888.7c-11-63.63-22.01-127.26-33.01-190.89c0,0,10.12,0.02,10.16,0.02    c11,63.62,22,127.24,33,190.87c0,0,56.77,0,132.22,0c11.1-63.47,22.19-126.94,33.29-190.4c3.38,0.01,6.77,0.02,10.15,0.02    c-11.09,63.46-22.19,126.92-33.28,190.38c135.62,0,271.23,0,330.66,0c19.86,0,31.21,0,31.21,0c0.14,0,0.21,0,0.21,0v-30.47    c-9.68-35.01-19.36-70.03-29.03-105.04c-2.07-8.42-5.31-16.49-9.64-23.99c-4.54-7.88-10.34-15.19-16.75-21.14    c-10.87-10.08-21.45-14.75-26.54-17c-10.14-4.48-18.08-6.09-29.07-8.31c-12.2-2.47-21.27-3.18-32.75-4.09    c-9.48-0.75-23.8-1.88-42.75-1.1c-10.93,0.45-20.36,0.84-32.96,3.25c-12.08,2.31-23.49,4.49-35.92,12.06    c-5.69,3.47-10.97,7.68-15.69,12.53l-2.96,3.04l-4.21-10.01c3.82-3.93,9.65-9.23,17.66-14.11c13.7-8.34,26.25-10.86,39.25-13.34    c13.34-2.55,23.28-2.96,34.43-3.42c19.16-0.79,33.72,0.31,43.95,1.12c11.7,0.93,21.14,1.67,33.94,4.26    c11.13,2.25,20,4.04,31.13,8.96c5.95,2.63,17.44,7.83,29.29,18.82c3.59,3.33,11.54,11.2,18.62,23.48    c5.9,10.23,8.99,19.7,10.68,26.59c9.9,35.81,19.8,71.62,29.7,107.43h140.84c-22.15-106.91-44.29-213.81-66.44-320.72l9.79-2.03    c0,0,13.28,64.11,28.19,136.06c19.05,91.95,40.75,196.69,40.75,196.69c-51.04,0-102.08,0-153.12,0c0,10.16,0,20.31,0,30.47    c0,0-178.47,0-360.21,0c-188.55,0-380.62,0-380.62,0L649.73,874.8L528.44,850.22L528.44,850.22z"
   id="path3" />
	</g>
</g>
<g
   id="Companies">
	<g
   id="g49">
		<rect
   x="946.11"
   y="584.19"
   class="st1"
   width="47.09"
   height="26.65"
   id="rect3" />
		<text
   transform="matrix(1 0 0 1 946.1089 606.5183)"
   class="st2 st3 st4"
   id="text3">86</text>
		<rect
   x="945.94"
   y="706.04"
   class="st1"
   width="49.51"
   height="26.65"
   id="rect4" />
		<text
   transform="matrix(1 0 0 1 945.936 728.3679)"
   class="st2 st3 st4"
   id="text4">85</text>
		<rect
   x="1186.72"
   y="556.94"
   class="st1"
   width="55.76"
   height="26.65"
   id="rect5" />
		<text
   transform="matrix(1 0 0 1 1186.7227 579.2668)"
   class="st2 st3 st4"
   id="text5">80</text>
		<rect
   x="1272.1"
   y="573.31"
   class="st1"
   width="64.14"
   height="26.65"
   id="rect6" />
		<text
   transform="matrix(1 0 0 1 1272.103 595.6335)"
   class="st2 st3 st4"
   id="text6">81</text>
		<rect
   x="1320.1"
   y="649.28"
   class="st1"
   width="50.66"
   height="26.65"
   id="rect7" />
		<text
   transform="matrix(1 0 0 1 1320.103 671.6086)"
   class="st2 st3 st4"
   id="text7">82</text>
		<rect
   x="1090.09"
   y="706.04"
   class="st1"
   width="64.14"
   height="26.65"
   id="rect8" />
		<text
   transform="matrix(1 0 0 1 1090.0854 728.3679)"
   class="st2 st3 st4"
   id="text8">84</text>
		<rect
   x="1170.32"
   y="706.04"
   class="st1"
   width="64.14"
   height="26.65"
   id="rect9" />
		<text
   transform="matrix(1 0 0 1 1170.3242 728.3679)"
   class="st2 st3 st4"
   id="text9">83</text>
		
			<rect
   x="375.02"
   y="810.54"
   transform="matrix(0.3741 -0.9274 0.9274 0.3741 -530.6086 882.3141)"
   class="st1"
   width="26.65"
   height="47.42"
   id="rect10" />
		<text
   transform="matrix(0.9274 0.3741 -0.374 0.9274 363.0341 833.647)"
   class="st2 st3 st4"
   id="text10">91</text>
		
			<rect
   x="585.15"
   y="686.44"
   transform="matrix(0.2025 -0.9793 0.9793 0.2025 -216.5838 1153.3209)"
   class="st1"
   width="29.31"
   height="46.39"
   id="rect11" />
		<text
   transform="matrix(0.9793 0.2025 -0.2025 0.9793 575.5113 712.4287)"
   class="st2 st3 st4"
   id="text11">95</text>
		
			<rect
   x="604.22"
   y="593.36"
   transform="matrix(0.2025 -0.9793 0.9793 0.2025 -110.2251 1097.7594)"
   class="st1"
   width="29.31"
   height="46.39"
   id="rect12" />
		<text
   transform="matrix(0.9793 0.2025 -0.2025 0.9793 594.5792 619.3486)"
   class="st2 st3 st4"
   id="text12">94</text>
		
			<rect
   x="379.8"
   y="607.82"
   transform="matrix(0.3741 -0.9274 0.9274 0.3741 -339.6121 759.8553)"
   class="st1"
   width="26.65"
   height="47.42"
   id="rect13" />
		<text
   transform="matrix(0.9274 0.3741 -0.374 0.9274 367.8129 630.9326)"
   class="st2 st3 st4"
   id="text13">90</text>
		
			<rect
   x="414.12"
   y="524.74"
   transform="matrix(0.3741 -0.9274 0.9274 0.3741 -241.0869 739.6916)"
   class="st1"
   width="26.65"
   height="47.42"
   id="rect14" />
		<text
   transform="matrix(0.9274 0.3741 -0.374 0.9274 402.1342 547.8618)"
   class="st2 st3 st4"
   id="text14">89</text>
		
			<rect
   x="516.78"
   y="485.73"
   transform="matrix(0.1989 -0.98 0.98 0.1989 -74.5973 927.6245)"
   class="st1"
   width="26.66"
   height="47.42"
   id="rect15" />
		<text
   transform="matrix(0.98 0.1989 -0.1988 0.98 505.1329 513.5024)"
   class="st2 st3 st5"
   id="text15">88</text>
		
			<rect
   x="496.77"
   y="599.89"
   transform="matrix(0.1989 -0.98 0.98 0.1989 -202.5041 999.4705)"
   class="st1"
   width="26.66"
   height="47.42"
   id="rect16" />
		<text
   transform="matrix(0.98 0.1989 -0.1988 0.98 485.1246 627.6566)"
   class="st2 st3 st5"
   id="text16">93</text>
		
			<rect
   x="475.91"
   y="674.77"
   transform="matrix(0.1989 -0.98 0.98 0.1989 -292.6006 1039.0111)"
   class="st1"
   width="26.66"
   height="47.42"
   id="rect17" />
		<text
   transform="matrix(0.98 0.1989 -0.1988 0.98 464.2637 702.5357)"
   class="st2 st3 st5"
   id="text17">92</text>
		<rect
   x="1455.23"
   y="672.68"
   class="st1"
   width="50.66"
   height="26.65"
   id="rect18" />
		<text
   transform="matrix(1 0 0 1 1455.2329 695.0012)"
   class="st2 st3 st4"
   id="text18">72</text>
		<rect
   x="1345.43"
   y="454.94"
   class="st1"
   width="50.66"
   height="26.65"
   id="rect19" />
		<text
   transform="matrix(1 0 0 1 1345.4321 477.2617)"
   class="st2 st3 st4"
   id="text19">73</text>
		<rect
   x="1272.1"
   y="454.94"
   class="st1"
   width="50.66"
   height="26.65"
   id="rect20" />
		<text
   transform="matrix(1 0 0 1 1272.103 477.2617)"
   class="st2 st3 st4"
   id="text20">74</text>
		<rect
   x="1189.27"
   y="454.94"
   class="st1"
   width="50.66"
   height="26.65"
   id="rect21" />
		<text
   transform="matrix(1 0 0 1 1189.271 477.2617)"
   class="st2 st3 st4"
   id="text21">75</text>
		<rect
   x="1103.57"
   y="454.94"
   class="st1"
   width="50.66"
   height="26.65"
   id="rect22" />
		<text
   transform="matrix(1 0 0 1 1103.5693 477.2617)"
   class="st2 st3 st4"
   id="text22">76</text>
		<rect
   x="1014.12"
   y="454.94"
   class="st1"
   width="50.66"
   height="26.65"
   id="rect23" />
		<text
   transform="matrix(1 0 0 1 1014.1245 477.2617)"
   class="st2 st3 st4"
   id="text23">77</text>
		<rect
   x="931.38"
   y="454.94"
   class="st1"
   width="50.66"
   height="26.65"
   id="rect24" />
		<text
   transform="matrix(1 0 0 1 931.3794 477.2617)"
   class="st2 st3 st4"
   id="text24">78</text>
		<rect
   x="846.18"
   y="454.94"
   class="st1"
   width="50.66"
   height="26.65"
   id="rect25" />
		<text
   transform="matrix(1 0 0 1 846.1772 477.2617)"
   class="st2 st3 st4"
   id="text25">79</text>
		<rect
   x="795.23"
   y="706.04"
   class="st1"
   width="49.51"
   height="26.65"
   id="rect26" />
		<text
   transform="matrix(1 0 0 1 795.2319 728.3679)"
   class="st2 st3 st4"
   id="text26">87</text>
		<g
   id="g36">
			<g
   id="g30">
				<g
   id="g28">
					<g
   id="g26">
						<polygon
   class="st6"
   points="618.71,801.26 618.71,800.04 618.11,800.04 618.11,799.23 617.37,799.23 617.37,798.72         610.07,798.72 610.07,799.23 609.32,799.23 609.32,800.04 608.49,800.04 608.49,801.26 607.37,801.26 607.37,809.09         608.49,809.09 608.49,810.41 609.32,810.41 609.32,811.31 610.07,811.31 610.07,811.83 617.37,811.83 617.37,811.31         618.11,811.31 618.11,810.41 618.71,810.41 618.71,809.09 619.92,809.09 619.92,801.26       "
   id="polygon26" />
					</g>
					<g
   id="g27">
						<polygon
   class="st1"
   points="618.71,801.26 618.71,800.04 618.11,800.04 618.11,799.23 617.37,799.23 617.37,798.72         610.07,798.72 610.07,799.23 609.32,799.23 609.32,800.04 608.49,800.04 608.49,801.26 607.37,801.26 607.37,809.09         608.49,809.09 608.49,810.41 609.32,810.41 609.32,811.31 610.07,811.31 610.07,811.83 617.37,811.83 617.37,811.31         618.11,811.31 618.11,810.41 618.71,810.41 618.71,809.09 619.92,809.09 619.92,801.26       "
   id="polygon27" />
					</g>
				</g>
				<g
   id="g29">
					<rect
   x="608.63"
   y="805.27"
   class="st7"
   width="2.11"
   height="2.25"
   id="rect28" />
					<rect
   x="610.67"
   y="807.59"
   class="st7"
   width="2.31"
   height="2.46"
   id="rect29" />
				</g>
			</g>
			<g
   id="g35">
				<g
   id="g33">
					<g
   id="g31">
						<polygon
   class="st6"
   points="625.63,805.42 625.63,804.2 625.03,804.2 625.03,803.39 624.28,803.39 624.28,802.88         616.98,802.88 616.98,803.39 616.24,803.39 616.24,804.2 615.4,804.2 615.4,805.42 614.29,805.42 614.29,813.25 615.4,813.25         615.4,814.57 616.24,814.57 616.24,815.47 616.98,815.47 616.98,815.98 624.28,815.98 624.28,815.47 625.03,815.47         625.03,814.57 625.63,814.57 625.63,813.25 626.84,813.25 626.84,805.42       "
   id="polygon30" />
					</g>
					<g
   id="g32">
						<polygon
   class="st1"
   points="625.63,805.42 625.63,804.2 625.03,804.2 625.03,803.39 624.28,803.39 624.28,802.88         616.98,802.88 616.98,803.39 616.24,803.39 616.24,804.2 615.4,804.2 615.4,805.42 614.29,805.42 614.29,813.25 615.4,813.25         615.4,814.57 616.24,814.57 616.24,815.47 616.98,815.47 616.98,815.98 624.28,815.98 624.28,815.47 625.03,815.47         625.03,814.57 625.63,814.57 625.63,813.25 626.84,813.25 626.84,805.42       "
   id="polygon31" />
					</g>
				</g>
				<g
   id="g34">
					<rect
   x="615.54"
   y="809.43"
   class="st7"
   width="2.11"
   height="2.25"
   id="rect33" />
					<rect
   x="617.58"
   y="811.75"
   class="st7"
   width="2.31"
   height="2.46"
   id="rect34" />
				</g>
			</g>
			<polygon
   class="st8"
   points="619.08,801.65 619.08,799.29 621.06,799.23 621.06,796.87 623.28,796.87 623.3,792.77      621.64,792.77 621.64,795.13 617.22,795.07 617.2,797.38 615.01,797.37 615.01,799.29 612.86,799.29 612.86,796.87      614.61,796.87 614.63,794.59 616.7,794.57 616.76,792.21 621.11,792.09 621.17,789.79 625.47,789.79 625.47,787.37      630.36,787.43 630.36,792.77 626.09,792.77 626.07,797.64 623.8,797.61 623.82,799.9 621.71,799.9 621.71,801.57 621.73,803.76      619.1,803.74    "
   id="polygon35" />
		</g>
		<g
   id="g47">
			<g
   id="g41">
				<g
   id="g39">
					<g
   id="g37">
						<polygon
   class="st6"
   points="1490.83,521.73 1490.83,520.5 1490.22,520.5 1490.22,519.7 1489.48,519.7 1489.48,519.18         1482.18,519.18 1482.18,519.7 1481.43,519.7 1481.43,520.5 1480.6,520.5 1480.6,521.73 1479.48,521.73 1479.48,529.55         1480.6,529.55 1480.6,530.87 1481.43,530.87 1481.43,531.77 1482.18,531.77 1482.18,532.29 1489.48,532.29 1489.48,531.77         1490.22,531.77 1490.22,530.87 1490.83,530.87 1490.83,529.55 1492.03,529.55 1492.03,521.73       "
   id="polygon36" />
					</g>
					<g
   id="g38">
						<polygon
   class="st1"
   points="1490.83,521.73 1490.83,520.5 1490.22,520.5 1490.22,519.7 1489.48,519.7 1489.48,519.18         1482.18,519.18 1482.18,519.7 1481.43,519.7 1481.43,520.5 1480.6,520.5 1480.6,521.73 1479.48,521.73 1479.48,529.55         1480.6,529.55 1480.6,530.87 1481.43,530.87 1481.43,531.77 1482.18,531.77 1482.18,532.29 1489.48,532.29 1489.48,531.77         1490.22,531.77 1490.22,530.87 1490.83,530.87 1490.83,529.55 1492.03,529.55 1492.03,521.73       "
   id="polygon37" />
					</g>
				</g>
				<g
   id="g40">
					<rect
   x="1480.74"
   y="525.73"
   class="st7"
   width="2.11"
   height="2.25"
   id="rect39" />
					<rect
   x="1482.78"
   y="528.05"
   class="st7"
   width="2.31"
   height="2.46"
   id="rect40" />
				</g>
			</g>
			<g
   id="g46">
				<g
   id="g44">
					<g
   id="g42">
						<polygon
   class="st6"
   points="1497.74,525.88 1497.74,524.66 1497.14,524.66 1497.14,523.86 1496.39,523.86 1496.39,523.34         1489.09,523.34 1489.09,523.86 1488.35,523.86 1488.35,524.66 1487.51,524.66 1487.51,525.88 1486.4,525.88 1486.4,533.71         1487.51,533.71 1487.51,535.03 1488.35,535.03 1488.35,535.93 1489.09,535.93 1489.09,536.45 1496.39,536.45 1496.39,535.93         1497.14,535.93 1497.14,535.03 1497.74,535.03 1497.74,533.71 1498.95,533.71 1498.95,525.88       "
   id="polygon41" />
					</g>
					<g
   id="g43">
						<polygon
   class="st1"
   points="1497.74,525.88 1497.74,524.66 1497.14,524.66 1497.14,523.86 1496.39,523.86 1496.39,523.34         1489.09,523.34 1489.09,523.86 1488.35,523.86 1488.35,524.66 1487.51,524.66 1487.51,525.88 1486.4,525.88 1486.4,533.71         1487.51,533.71 1487.51,535.03 1488.35,535.03 1488.35,535.93 1489.09,535.93 1489.09,536.45 1496.39,536.45 1496.39,535.93         1497.14,535.93 1497.14,535.03 1497.74,535.03 1497.74,533.71 1498.95,533.71 1498.95,525.88       "
   id="polygon42" />
					</g>
				</g>
				<g
   id="g45">
					<rect
   x="1487.65"
   y="529.89"
   class="st7"
   width="2.11"
   height="2.25"
   id="rect44" />
					<rect
   x="1489.69"
   y="532.21"
   class="st7"
   width="2.31"
   height="2.46"
   id="rect45" />
				</g>
			</g>
			<polygon
   class="st8"
   points="1491.19,522.11 1491.19,519.75 1493.17,519.69 1493.17,517.33 1495.39,517.33 1495.41,513.24      1493.75,513.24 1493.75,515.59 1489.33,515.53 1489.31,517.84 1487.12,517.83 1487.12,519.75 1484.97,519.75 1484.97,517.33      1486.72,517.33 1486.74,515.05 1488.81,515.04 1488.87,512.68 1493.23,512.55 1493.28,510.26 1497.58,510.26 1497.58,507.84      1502.47,507.9 1502.47,513.24 1498.2,513.24 1498.18,518.1 1495.91,518.08 1495.94,520.36 1493.82,520.36 1493.82,522.03      1493.84,524.22 1491.21,524.2    "
   id="polygon46" />
		</g>
		
			<rect
   x="567.03"
   y="773.72"
   transform="matrix(0.2025 -0.9793 0.9793 0.2025 -316.513 1205.1798)"
   class="st1"
   width="29.31"
   height="46.39"
   id="rect47" />
		<text
   transform="matrix(0.9793 0.2025 -0.2025 0.9793 557.3902 799.7146)"
   class="st9 st3 st4"
   id="text47">96</text>
		<g
   id="g48">
			<rect
   x="1429.69"
   y="512.28"
   class="st1"
   width="50.66"
   height="26.65"
   id="rect48" />
			<text
   transform="matrix(1 0 0 1 1429.6914 534.6069)"
   class="st9 st3 st4"
   id="text48">71</text>
		</g>
	</g>
</g>
<g
   id="Path">
	<g
   id="g61">
		<g
   id="g57">
			<g
   id="g56">
				<line
   class="st10"
   x1="585.17"
   y1="577.72"
   x2="585.17"
   y2="577.72"
   id="line49" />
				<path
   class="st11"
   d="M527.7,565.18c-9.58-2.09-19.16-4.18-28.73-6.27"
   id="path49" />
				<line
   class="st10"
   x1="470.23"
   y1="552.65"
   x2="470.23"
   y2="552.65"
   id="line50" />
				<path
   class="st12"
   d="M448.3,617.88c-10.96,32.62-21.92,65.24-32.88,97.85"
   id="path50" />
				<line
   class="st10"
   x1="404.46"
   y1="748.35"
   x2="404.46"
   y2="748.35"
   id="line51" />
				<path
   class="st13"
   d="M470.57,765.4c11.02,2.84,22.04,5.68,33.05,8.52"
   id="path51" />
				<line
   class="st10"
   x1="536.67"
   y1="782.44"
   x2="536.67"
   y2="782.44"
   id="line52" />
				<path
   class="st14"
   d="M552.84,714.19c13.47-56.88,26.95-113.76,40.42-170.64"
   id="path52" />
				<line
   class="st10"
   x1="601.35"
   y1="509.42"
   x2="601.35"
   y2="509.42"
   id="line53" />
				<path
   class="st15"
   d="M672.65,523.43c13.5,2.65,27.01,5.31,40.51,7.96c119.46-1.45,238.93-2.89,358.39-4.34"
   id="path53" />
				<line
   class="st10"
   x1="1107.89"
   y1="526.62"
   x2="1107.89"
   y2="526.62"
   id="line54" />
				<path
   class="st16"
   d="M1107.41,594.89c-0.08,11.38-0.16,22.76-0.24,34.13"
   id="path54" />
				<line
   class="st10"
   x1="1106.93"
   y1="663.15"
   x2="1106.93"
   y2="663.15"
   id="line55" />
				<path
   class="st17"
   d="M1167.25,662.77c30.16-0.19,60.32-0.38,90.48-0.57"
   id="path55" />
				<line
   class="st10"
   x1="1287.89"
   y1="662.02"
   x2="1287.89"
   y2="662.02"
   id="line56" />
			</g>
		</g>
		<line
   class="st18"
   x1="913.79"
   y1="669.3"
   x2="889.58"
   y2="529.26"
   id="line57" />
		<line
   class="st18"
   x1="1035.68"
   y1="527.49"
   x2="1011.17"
   y2="667.74"
   id="line58" />
		<path
   class="st18"
   d="M1167.93,509.42c24.09-6.81,61.48-13.72,105.98-7.33c22.84,3.28,58.13,8.77,93.88,34.41    c24.91,17.87,40.22,38.48,48.85,52.25"
   id="path58" />
		<line
   class="st18"
   x1="1466.15"
   y1="638.95"
   x2="1371.1"
   y2="538.94"
   id="line59" />
		<line
   class="st18"
   x1="1407.38"
   y1="490.63"
   x2="1470.94"
   y2="395.22"
   id="line60" />
		<line
   class="st18"
   x1="816.86"
   y1="530.14"
   x2="816.86"
   y2="676.35"
   id="line61" />
	</g>
</g>
<g
   id="Legend">
	<g
   id="g78">
		<g
   id="g72">
			<g
   id="g66">
				<g
   id="g64">
					<g
   id="g62">
						<polygon
   class="st6"
   points="1154.98,795.76 1154.98,794.54 1154.37,794.54 1154.37,793.74 1153.63,793.74 1153.63,793.22         1146.33,793.22 1146.33,793.74 1145.58,793.74 1145.58,794.54 1144.75,794.54 1144.75,795.76 1143.63,795.76 1143.63,803.59         1144.75,803.59 1144.75,804.91 1145.58,804.91 1145.58,805.81 1146.33,805.81 1146.33,806.33 1153.63,806.33 1153.63,805.81         1154.37,805.81 1154.37,804.91 1154.98,804.91 1154.98,803.59 1156.18,803.59 1156.18,795.76       "
   id="polygon61" />
					</g>
					<g
   id="g63">
						<polygon
   class="st1"
   points="1154.98,795.76 1154.98,794.54 1154.37,794.54 1154.37,793.74 1153.63,793.74 1153.63,793.22         1146.33,793.22 1146.33,793.74 1145.58,793.74 1145.58,794.54 1144.75,794.54 1144.75,795.76 1143.63,795.76 1143.63,803.59         1144.75,803.59 1144.75,804.91 1145.58,804.91 1145.58,805.81 1146.33,805.81 1146.33,806.33 1153.63,806.33 1153.63,805.81         1154.37,805.81 1154.37,804.91 1154.98,804.91 1154.98,803.59 1156.18,803.59 1156.18,795.76       "
   id="polygon62" />
					</g>
				</g>
				<g
   id="g65">
					<rect
   x="1144.89"
   y="799.77"
   class="st7"
   width="2.11"
   height="2.25"
   id="rect64" />
					<rect
   x="1146.93"
   y="802.09"
   class="st7"
   width="2.31"
   height="2.46"
   id="rect65" />
				</g>
			</g>
			<g
   id="g71">
				<g
   id="g69">
					<g
   id="g67">
						<polygon
   class="st6"
   points="1161.89,799.92 1161.89,798.7 1161.29,798.7 1161.29,797.9 1160.54,797.9 1160.54,797.38         1153.24,797.38 1153.24,797.9 1152.5,797.9 1152.5,798.7 1151.66,798.7 1151.66,799.92 1150.55,799.92 1150.55,807.75         1151.66,807.75 1151.66,809.07 1152.5,809.07 1152.5,809.97 1153.24,809.97 1153.24,810.49 1160.54,810.49 1160.54,809.97         1161.29,809.97 1161.29,809.07 1161.89,809.07 1161.89,807.75 1163.1,807.75 1163.1,799.92       "
   id="polygon66" />
					</g>
					<g
   id="g68">
						<polygon
   class="st1"
   points="1161.89,799.92 1161.89,798.7 1161.29,798.7 1161.29,797.9 1160.54,797.9 1160.54,797.38         1153.24,797.38 1153.24,797.9 1152.5,797.9 1152.5,798.7 1151.66,798.7 1151.66,799.92 1150.55,799.92 1150.55,807.75         1151.66,807.75 1151.66,809.07 1152.5,809.07 1152.5,809.97 1153.24,809.97 1153.24,810.49 1160.54,810.49 1160.54,809.97         1161.29,809.97 1161.29,809.07 1161.89,809.07 1161.89,807.75 1163.1,807.75 1163.1,799.92       "
   id="polygon67" />
					</g>
				</g>
				<g
   id="g70">
					<rect
   x="1151.8"
   y="803.93"
   class="st7"
   width="2.11"
   height="2.25"
   id="rect69" />
					<rect
   x="1153.84"
   y="806.25"
   class="st7"
   width="2.31"
   height="2.46"
   id="rect70" />
				</g>
			</g>
			<polygon
   class="st8"
   points="1155.34,796.15 1155.34,793.79 1157.32,793.73 1157.32,791.37 1159.54,791.37 1159.56,787.27      1157.9,787.27 1157.9,789.63 1153.48,789.57 1153.46,791.88 1151.27,791.87 1151.27,793.79 1149.12,793.79 1149.12,791.37      1150.87,791.37 1150.89,789.09 1152.96,789.07 1153.02,786.72 1157.38,786.59 1157.43,784.29 1161.73,784.29 1161.73,781.87      1166.62,781.94 1166.62,787.27 1162.35,787.27 1162.33,792.14 1160.06,792.12 1160.09,794.4 1157.97,794.4 1157.97,796.07      1157.99,798.26 1155.36,798.24    "
   id="polygon71" />
		</g>
		<g
   id="g75">
			<polygon
   class="st19"
   points="902.16,807.37 902.15,807.27 902.15,794.48 900.36,794.51 900.32,789.16 898.76,789.16      898.73,787.44 897.1,787.44 897.1,785.78 893.81,785.75 893.75,784.94 887.11,784.94 887.08,785.72 883.95,785.75 883.95,787.4      882.23,787.37 882.23,789.06 880.44,789.06 880.41,794.25 879.17,794.22 879.2,807.34 880.44,807.34 880.45,805.97 882.2,805.97      882.2,804.12 883.96,804.11 883.96,805.84 885.62,805.87 885.64,807.4 888.73,807.42 888.73,804.11 891.96,804.09 891.94,807.4      895.66,807.42 895.69,805.76 897.2,805.76 897.18,804.09 898.71,804.09 898.73,805.75 900.32,805.71 900.32,807.39    "
   id="polygon72" />
			<g
   id="g73">
				<polygon
   class="st7"
   points="897.29,790.78 895.44,790.78 895.44,789.18 892.06,789.18 892.06,790.78 890.59,790.78       890.59,795.66 892.06,795.66 892.06,797.38 895.44,797.38 895.44,795.66 897.29,795.66     "
   id="polygon73" />
			</g>
			<g
   id="g74">
				<polygon
   class="st7"
   points="887.34,790.89 885.48,790.89 885.48,789.31 882.1,789.31 882.1,790.89 880.63,790.89       880.63,795.72 882.1,795.72 882.1,797.42 885.48,797.42 885.48,795.72 887.34,795.72     "
   id="polygon74" />
			</g>
			<rect
   x="890.59"
   y="792.62"
   class="st20"
   width="3.19"
   height="3.03"
   id="rect74" />
			<rect
   x="880.63"
   y="792.71"
   class="st20"
   width="3.19"
   height="3"
   id="rect75" />
		</g>
		<rect
   x="910.8"
   y="788.06"
   class="st1"
   width="207.27"
   height="16.24"
   id="rect76" />
		<text
   transform="matrix(1 0 0 1 910.8003 802.9434)"
   class="st7 st3 st21"
   id="text76">student lounge</text>
		<g
   id="g76">
			<polygon
   class="st22"
   points="698.29,801.4 700.59,801.4 700.59,804.74 702.26,804.74 702.26,806.83 706.23,806.83 706.23,808.5      715.41,808.5 715.41,806.83 719.17,806.83 719.17,804.74 721.26,804.74 721.26,801.4 717.66,801.4 717.67,799.6 711.54,799.67      711.5,797.79 707.62,797.75 707.58,795.08 711.5,795.04 711.5,793.11 717.59,793.07 717.59,791.19 721.28,791.15 721.26,788.24      719.17,788.24 719.17,785.53 715.41,785.53 715.41,783.86 706.23,783.86 706.23,785.53 702.26,785.53 702.26,788.24      700.59,788.24 700.59,791.38 698.29,791.38    "
   id="polygon76" />
		</g>
		<rect
   x="729.99"
   y="788.06"
   class="st1"
   width="123.98"
   height="16.24"
   id="rect77" />
		<text
   transform="matrix(1 0 0 1 729.9868 802.9434)"
   class="st7 st3 st21"
   id="text77">entrance</text>
		<rect
   x="1172.29"
   y="788.06"
   class="st1"
   width="237.76"
   height="16.24"
   id="rect78" />
		<text
   transform="matrix(1 0 0 1 1172.2881 802.9434)"
   class="st7 st3 st21"
   id="text78">silver companies</text>
	</g>
</g>
<g
   id="Icons">
	<g
   id="g84">
		<g
   id="g81">
			<polygon
   class="st19"
   points="760.02,669.54 760.01,669.33 760.01,641.58 756.11,641.65 756.04,630.03 752.64,630.03      752.58,626.3 749.04,626.3 749.04,622.71 741.91,622.64 741.78,620.88 727.38,620.88 727.31,622.57 720.52,622.64 720.52,626.23      716.78,626.16 716.78,629.82 712.91,629.82 712.84,641.09 710.14,641.02 710.21,669.47 712.91,669.47 712.92,666.52      716.71,666.52 716.71,662.5 720.55,662.48 720.55,666.23 724.15,666.28 724.19,669.61 730.88,669.66 730.88,662.48 737.9,662.43      737.85,669.61 745.93,669.66 745.98,666.05 749.25,666.05 749.22,662.43 752.54,662.43 752.58,666.02 756.04,665.95      756.04,669.58    "
   id="polygon78" />
			<g
   id="g79">
				<polygon
   class="st7"
   points="749.46,633.55 745.44,633.55 745.44,630.09 738.11,630.09 738.11,633.55 734.92,633.55       734.92,644.14 738.11,644.14 738.11,647.88 745.44,647.88 745.44,644.14 749.46,644.14     "
   id="polygon79" />
			</g>
			<g
   id="g80">
				<polygon
   class="st7"
   points="727.86,633.79 723.85,633.79 723.85,630.36 716.51,630.36 716.51,633.79 713.32,633.79       713.32,644.27 716.51,644.27 716.51,647.97 723.85,647.97 723.85,644.27 727.86,644.27     "
   id="polygon80" />
			</g>
			<rect
   x="734.92"
   y="637.54"
   class="st20"
   width="6.92"
   height="6.58"
   id="rect80" />
			<rect
   x="713.32"
   y="637.74"
   class="st20"
   width="6.92"
   height="6.51"
   id="rect81" />
		</g>
		<g
   id="g82">
			<polygon
   class="st22"
   points="488.4,843.95 490.65,844.39 490.02,847.67 491.66,847.99 491.26,850.04 495.15,850.8      494.84,852.44 503.86,854.19 504.18,852.55 507.87,853.26 508.26,851.21 510.31,851.61 510.95,848.33 507.42,847.64      507.76,845.87 501.74,844.78 502.06,842.92 498.25,842.14 498.72,839.51 502.58,840.22 502.95,838.33 508.93,839.45      509.29,837.6 512.92,838.27 513.46,835.41 511.41,835.01 511.92,832.35 508.23,831.63 508.55,829.99 499.53,828.24      499.21,829.88 495.32,829.13 494.8,831.79 493.16,831.47 492.56,834.55 490.31,834.11    "
   id="polygon81" />
		</g>
		<g
   id="g83">
			<polygon
   class="st22"
   points="1476.69,381.87 1478.94,381.39 1479.64,384.66 1481.27,384.31 1481.71,386.35 1485.59,385.52      1485.94,387.15 1494.92,385.24 1494.57,383.6 1498.25,382.82 1497.82,380.77 1499.86,380.34 1499.16,377.07 1495.64,377.82      1495.27,376.05 1489.29,377.41 1488.86,375.57 1485.05,376.35 1484.45,373.74 1488.29,372.88 1487.88,371 1493.83,369.69      1493.44,367.85 1497.04,367.04 1496.41,364.2 1494.37,364.64 1493.8,361.98 1490.13,362.77 1489.78,361.14 1480.79,363.05      1481.14,364.69 1477.26,365.52 1477.83,368.17 1476.19,368.52 1476.85,371.58 1474.6,372.06    "
   id="polygon82" />
		</g>
	</g>
</g>


</svg>
